<mxfile host="app.diagrams.net" modified="2020-12-16T06:56:05.373Z" agent="5.0 (Windows NT 10.0; Win64; x64) AppleWebKit/537.36 (KHTML, like Gecko) Chrome/87.0.4280.88 Safari/537.36" etag="600mpGwOdyuOEBMQQb5K" version="14.0.3" type="github">
  <diagram id="gwRBMSphsSHNI5ecZo6i" name="Page-1">
    <mxGraphModel dx="1422" dy="794" grid="1" gridSize="10" guides="1" tooltips="1" connect="1" arrows="1" fold="1" page="1" pageScale="1" pageWidth="827" pageHeight="1169" math="0" shadow="0">
      <root>
        <mxCell id="0" />
        <mxCell id="1" parent="0" />
        <mxCell id="dLX5uv0-AtSkyxZvMrcc-9" value="" style="edgeStyle=orthogonalEdgeStyle;rounded=0;orthogonalLoop=1;jettySize=auto;html=1;" edge="1" parent="1" source="dLX5uv0-AtSkyxZvMrcc-1" target="dLX5uv0-AtSkyxZvMrcc-8">
          <mxGeometry relative="1" as="geometry" />
        </mxCell>
        <mxCell id="dLX5uv0-AtSkyxZvMrcc-1" value="Инспектор" style="shape=umlActor;verticalLabelPosition=bottom;verticalAlign=top;html=1;outlineConnect=0;" vertex="1" parent="1">
          <mxGeometry x="140" y="510" width="30" height="60" as="geometry" />
        </mxCell>
        <mxCell id="dLX5uv0-AtSkyxZvMrcc-16" value="" style="edgeStyle=orthogonalEdgeStyle;rounded=0;orthogonalLoop=1;jettySize=auto;html=1;" edge="1" parent="1" source="dLX5uv0-AtSkyxZvMrcc-2" target="dLX5uv0-AtSkyxZvMrcc-12">
          <mxGeometry relative="1" as="geometry" />
        </mxCell>
        <mxCell id="dLX5uv0-AtSkyxZvMrcc-2" value="Судья" style="shape=umlActor;verticalLabelPosition=bottom;verticalAlign=top;html=1;outlineConnect=0;" vertex="1" parent="1">
          <mxGeometry x="399" y="500" width="30" height="60" as="geometry" />
        </mxCell>
        <mxCell id="dLX5uv0-AtSkyxZvMrcc-17" value="" style="edgeStyle=orthogonalEdgeStyle;rounded=0;orthogonalLoop=1;jettySize=auto;html=1;" edge="1" parent="1" source="dLX5uv0-AtSkyxZvMrcc-3" target="dLX5uv0-AtSkyxZvMrcc-13">
          <mxGeometry relative="1" as="geometry" />
        </mxCell>
        <mxCell id="dLX5uv0-AtSkyxZvMrcc-3" value="Пристав" style="shape=umlActor;verticalLabelPosition=bottom;verticalAlign=top;html=1;outlineConnect=0;" vertex="1" parent="1">
          <mxGeometry x="630" y="500" width="30" height="60" as="geometry" />
        </mxCell>
        <mxCell id="dLX5uv0-AtSkyxZvMrcc-8" value="Инициация проверки по ИНН, паспорту, &lt;br&gt;в/у, ФИО. Автоматизированное создание документов.&lt;br&gt;ЭЦП." style="ellipse;whiteSpace=wrap;html=1;" vertex="1" parent="1">
          <mxGeometry x="60" y="310" width="210" height="150" as="geometry" />
        </mxCell>
        <mxCell id="dLX5uv0-AtSkyxZvMrcc-10" value="Хранение документов, обращение к хранилищам сведений, отправка документов по этапам." style="ellipse;whiteSpace=wrap;html=1;" vertex="1" parent="1">
          <mxGeometry x="190" y="50" width="315" height="180" as="geometry" />
        </mxCell>
        <mxCell id="dLX5uv0-AtSkyxZvMrcc-11" value="" style="endArrow=none;dashed=1;html=1;dashPattern=1 3;strokeWidth=2;entryX=0.5;entryY=1;entryDx=0;entryDy=0;exitX=0.5;exitY=0;exitDx=0;exitDy=0;" edge="1" parent="1" source="dLX5uv0-AtSkyxZvMrcc-8" target="dLX5uv0-AtSkyxZvMrcc-10">
          <mxGeometry width="50" height="50" relative="1" as="geometry">
            <mxPoint x="390" y="390" as="sourcePoint" />
            <mxPoint x="440" y="340" as="targetPoint" />
          </mxGeometry>
        </mxCell>
        <mxCell id="dLX5uv0-AtSkyxZvMrcc-12" value="Подтверждение/отзыв документов, ЭЦП." style="ellipse;whiteSpace=wrap;html=1;" vertex="1" parent="1">
          <mxGeometry x="299" y="310" width="230" height="150" as="geometry" />
        </mxCell>
        <mxCell id="dLX5uv0-AtSkyxZvMrcc-13" value="Подтверждение/отзыв документов, ЭЦП, отправка документов гражданину на Госуслуги, электронную почту, почту." style="ellipse;whiteSpace=wrap;html=1;" vertex="1" parent="1">
          <mxGeometry x="550" y="310" width="230" height="150" as="geometry" />
        </mxCell>
        <mxCell id="dLX5uv0-AtSkyxZvMrcc-14" value="" style="endArrow=none;dashed=1;html=1;dashPattern=1 3;strokeWidth=2;exitX=0.5;exitY=0;exitDx=0;exitDy=0;" edge="1" parent="1" source="dLX5uv0-AtSkyxZvMrcc-12">
          <mxGeometry width="50" height="50" relative="1" as="geometry">
            <mxPoint x="390" y="380" as="sourcePoint" />
            <mxPoint x="350" y="230" as="targetPoint" />
          </mxGeometry>
        </mxCell>
        <mxCell id="dLX5uv0-AtSkyxZvMrcc-15" value="" style="endArrow=none;dashed=1;html=1;dashPattern=1 3;strokeWidth=2;entryX=0.5;entryY=0;entryDx=0;entryDy=0;" edge="1" parent="1" target="dLX5uv0-AtSkyxZvMrcc-13">
          <mxGeometry width="50" height="50" relative="1" as="geometry">
            <mxPoint x="350" y="230" as="sourcePoint" />
            <mxPoint x="440" y="330" as="targetPoint" />
          </mxGeometry>
        </mxCell>
        <mxCell id="dLX5uv0-AtSkyxZvMrcc-19" value="Внешние хранилища сведений. &lt;br&gt;Например, Госуслуги" style="ellipse;shape=cloud;whiteSpace=wrap;html=1;" vertex="1" parent="1">
          <mxGeometry x="620" y="40" width="170" height="110" as="geometry" />
        </mxCell>
        <mxCell id="dLX5uv0-AtSkyxZvMrcc-20" value="" style="endArrow=classic;startArrow=classic;html=1;entryX=0.16;entryY=0.55;entryDx=0;entryDy=0;entryPerimeter=0;exitX=1;exitY=0.5;exitDx=0;exitDy=0;" edge="1" parent="1" source="dLX5uv0-AtSkyxZvMrcc-10" target="dLX5uv0-AtSkyxZvMrcc-19">
          <mxGeometry width="50" height="50" relative="1" as="geometry">
            <mxPoint x="390" y="360" as="sourcePoint" />
            <mxPoint x="440" y="310" as="targetPoint" />
          </mxGeometry>
        </mxCell>
        <mxCell id="dLX5uv0-AtSkyxZvMrcc-27" value="" style="edgeStyle=orthogonalEdgeStyle;rounded=0;orthogonalLoop=1;jettySize=auto;html=1;" edge="1" parent="1" source="dLX5uv0-AtSkyxZvMrcc-22" target="dLX5uv0-AtSkyxZvMrcc-26">
          <mxGeometry relative="1" as="geometry" />
        </mxCell>
        <mxCell id="dLX5uv0-AtSkyxZvMrcc-22" value="ФИО&lt;br&gt;F. Кодекс" style="rounded=0;whiteSpace=wrap;html=1;" vertex="1" parent="1">
          <mxGeometry x="130" y="690" width="120" height="260" as="geometry" />
        </mxCell>
        <mxCell id="dLX5uv0-AtSkyxZvMrcc-23" value="K. № документа" style="rounded=0;whiteSpace=wrap;html=1;" vertex="1" parent="1">
          <mxGeometry x="130" y="690" width="120" height="40" as="geometry" />
        </mxCell>
        <mxCell id="dLX5uv0-AtSkyxZvMrcc-24" value="Статья" style="rounded=0;whiteSpace=wrap;html=1;" vertex="1" parent="1">
          <mxGeometry x="330" y="770" width="120" height="90" as="geometry" />
        </mxCell>
        <mxCell id="dLX5uv0-AtSkyxZvMrcc-26" value="K. Наим. кодекса" style="rounded=0;whiteSpace=wrap;html=1;" vertex="1" parent="1">
          <mxGeometry x="330" y="770" width="120" height="30" as="geometry" />
        </mxCell>
      </root>
    </mxGraphModel>
  </diagram>
</mxfile>
